<svg width="32" height="32" viewBox="0 0 32 32" fill="none" xmlns="http://www.w3.org/2000/svg">
<g id="bill 1" clip-path="url(#clip0_551_839)">
<g id="Group">
<g id="Group_2">
<path id="Vector" d="M24.3311 12.0654H0.794702C0.357616 12.0654 0 12.423 0 12.8601V26.2773C0 26.7144 0.357616 27.072 0.794702 27.072H24.3311C24.7682 27.072 25.1258 26.7144 25.1258 26.2773V12.8601C25.1258 12.423 24.7682 12.0654 24.3311 12.0654ZM23.5364 25.4826H1.5894V13.6548H23.5364V25.4826Z" fill="#2FB946"/>
<path id="Vector_2" d="M5.34939 20.3443H7.3229C7.75998 20.3443 8.1176 19.9867 8.1176 19.5496C8.1176 19.1125 7.75998 18.7549 7.3229 18.7549H5.34939C4.9123 18.7549 4.55469 19.1125 4.55469 19.5496C4.55469 19.9867 4.90568 20.3443 5.34939 20.3443Z" fill="#2FB946"/>
<path id="Vector_3" d="M27.7608 8.4834H4.22439C3.7873 8.4834 3.42969 8.84101 3.42969 9.2781C3.42969 9.71519 3.7873 10.0728 4.22439 10.0728H26.9661V22.6953C26.9661 23.1324 27.3237 23.49 27.7608 23.49C28.1979 23.49 28.5555 23.1324 28.5555 22.6953V9.2781C28.5555 8.84101 28.1979 8.4834 27.7608 8.4834Z" fill="#2FB946"/>
<path id="Vector_4" d="M31.2061 4.92676H7.6697C7.23262 4.92676 6.875 5.28437 6.875 5.72146C6.875 6.15855 7.23262 6.51616 7.6697 6.51616H30.4114V19.1387C30.4114 19.5758 30.769 19.9334 31.2061 19.9334C31.6432 19.9334 32.0008 19.5758 32.0008 19.1387V5.72146C32.0008 5.28437 31.6432 4.92676 31.2061 4.92676Z" fill="#2FB946"/>
<path id="Vector_5" d="M17.8025 20.3443H19.776C20.2131 20.3443 20.5707 19.9867 20.5707 19.5496C20.5707 19.1125 20.2131 18.7549 19.776 18.7549H17.8025C17.3654 18.7549 17.0078 19.1125 17.0078 19.5496C17.0078 19.9867 17.3654 20.3443 17.8025 20.3443Z" fill="#2FB946"/>
<path id="Vector_6" d="M11.9402 20.3571H13.1852C13.4965 20.3571 13.7548 20.6088 13.7548 20.9266C13.7548 21.2445 13.5031 21.4962 13.1852 21.4962H10.9534C10.5163 21.4962 10.1587 21.8538 10.1587 22.2909C10.1587 22.728 10.5163 23.0856 10.9534 23.0856H11.768V23.6088C11.768 24.0458 12.1256 24.4035 12.5627 24.4035C12.9998 24.4035 13.3574 24.0458 13.3574 23.6088V23.079C14.4634 22.9929 15.3442 22.0591 15.3442 20.9266C15.3442 19.7346 14.3773 18.7677 13.1852 18.7677H11.9402C11.6289 18.7677 11.3707 18.516 11.3707 18.1982C11.3707 17.8869 11.6223 17.6286 11.9402 17.6286H14.1322C14.5693 17.6286 14.9269 17.271 14.9269 16.8339C14.9269 16.3968 14.5693 16.0392 14.1322 16.0392H13.3574V15.5359C13.3574 15.0988 12.9998 14.7412 12.5627 14.7412C12.1256 14.7412 11.768 15.0988 11.768 15.5359V16.0525C10.662 16.1386 9.78125 17.0723 9.78125 18.2048C9.78125 19.3902 10.7481 20.3571 11.9402 20.3571Z" fill="#2FB946"/>
</g>
</g>
</g>
<defs>
<clipPath id="clip0_551_839">
<rect width="32" height="32" fill="white"/>
</clipPath>
</defs>
</svg>
