<svg width="22" height="22" viewBox="0 0 22 22" fill="none" xmlns="http://www.w3.org/2000/svg">
<g id="Bag_alt">
<path id="Vector 9" d="M7.33398 11L7.33398 7.33334C7.33398 5.30829 8.97561 3.66667 11.0007 3.66667V3.66667C13.0257 3.66667 14.6673 5.30829 14.6673 7.33333L14.6673 11" stroke="white" stroke-width="2" stroke-linecap="round"/>
<path id="Rectangle 1" d="M3.36101 11.9178C3.50609 10.1769 3.57863 9.30647 4.15271 8.77824C4.7268 8.25 5.60027 8.25 7.3472 8.25H14.6528C16.3997 8.25 17.2732 8.25 17.8473 8.77824C18.4214 9.30647 18.4939 10.1769 18.639 11.9178L19.0695 17.0839C19.154 18.0974 19.1962 18.6042 18.8991 18.9271C18.602 19.25 18.0935 19.25 17.0764 19.25H4.9236C3.90655 19.25 3.39802 19.25 3.10092 18.9271C2.80382 18.6042 2.84605 18.0974 2.93051 17.0839L3.36101 11.9178Z" stroke="white" stroke-width="2"/>
</g>
</svg>
