<svg width="24" height="24" viewBox="0 0 24 24" fill="none" xmlns="http://www.w3.org/2000/svg">
<g id="Favorite">
<rect width="24" height="24" fill="#FAFAFA"/>
<path id="Vector 15" d="M4.45067 14.9082L11.4033 21.4395C11.6428 21.6644 11.7625 21.7769 11.9037 21.8046C11.9673 21.8171 12.0327 21.8171 12.0963 21.8046C12.2375 21.7769 12.3572 21.6644 12.5967 21.4395L19.5493 14.9082C21.5055 13.0706 21.743 10.0466 20.0978 7.92607L19.7885 7.52734C17.8203 4.99058 13.8696 5.41601 12.4867 8.31365C12.2913 8.72296 11.7087 8.72296 11.5133 8.31365C10.1304 5.41601 6.17972 4.99058 4.21154 7.52735L3.90219 7.92607C2.25695 10.0466 2.4945 13.0706 4.45067 14.9082Z" stroke="#CCD2E3" stroke-width="2"/>
</g>
</svg>
