<svg width="65" height="65" viewBox="0 0 65 65" fill="none" xmlns="http://www.w3.org/2000/svg">
<g id="shopping-online 1">
<path id="Vector" d="M47.121 40.4521L47.0837 40.2055C46.9649 39.3982 46.3016 38.8036 45.5231 38.8067H44.4189C44.0537 38.8067 43.7578 39.1172 43.7578 39.5005C43.7578 39.8838 44.0537 40.1943 44.4189 40.1943H45.5231C45.6501 40.1935 45.7585 40.2907 45.7781 40.4223L46.6524 46.2182C46.741 46.8183 47.1365 47.3185 47.6821 47.521C47.1162 47.8772 46.838 48.5792 46.9966 49.2517C47.1553 49.9238 47.7138 50.4085 48.3728 50.4461C49.0317 50.4836 49.6367 50.0655 49.864 49.4155C50.0912 48.765 49.8876 48.0356 49.3619 47.6171H51.3279C50.8143 48.0259 50.607 48.7329 50.8125 49.374C51.018 50.0152 51.5906 50.4473 52.2351 50.4473C52.8796 50.4473 53.4522 50.0152 53.6577 49.374C53.8632 48.7329 53.6558 48.0259 53.1423 47.6171H53.6171C53.9823 47.6171 54.2782 47.3062 54.2782 46.9232C54.2782 46.54 53.9823 46.2294 53.6171 46.2294H48.213C48.0861 46.2302 47.9776 46.133 47.9581 46.0014L47.8976 45.5984H52.8704C53.5433 45.598 54.1425 45.1504 54.3631 44.4833L55.3902 41.3728C55.4599 41.161 55.4278 40.9264 55.3038 40.7437C55.1799 40.5605 54.9792 40.4521 54.7652 40.4521H47.121ZM52.2347 49.0565C52.1358 49.0565 52.0562 48.9725 52.0562 48.8688C52.0562 48.7654 52.1358 48.6814 52.2347 48.6814C52.3336 48.6814 52.4136 48.7654 52.4136 48.8688C52.4136 48.9725 52.3336 49.0565 52.2347 49.0565ZM48.4543 49.0565C48.3554 49.0565 48.2754 48.9725 48.2754 48.8688C48.2754 48.7654 48.3554 48.6814 48.4543 48.6814C48.5528 48.6814 48.6329 48.7654 48.6329 48.8688C48.6329 48.9725 48.5528 49.0565 48.4543 49.0565ZM53.1139 44.0288C53.0777 44.1376 52.98 44.2107 52.8704 44.2107H47.688L47.3302 41.8397H53.8366L53.1139 44.0288Z" fill="#2FB946"/>
<path id="Vector_2" d="M22.8084 18.4324C23.7954 18.4497 24.6949 17.8696 25.0843 16.9648C25.474 16.06 25.2767 15.01 24.5848 14.3074C23.8929 13.6051 22.8441 13.3899 21.9305 13.7625C21.0169 14.1352 20.42 15.0224 20.42 16.0071C20.4098 17.3342 21.4783 18.4194 22.8084 18.4324ZM22.8084 14.8449C23.2836 14.8276 23.7213 15.0999 23.9151 15.5327C24.1093 15.9656 24.02 16.4727 23.6902 16.814C23.3605 17.1557 22.8557 17.2631 22.4152 17.0859C21.9743 16.9084 21.6855 16.4819 21.6852 16.0078C21.6742 15.3774 22.1769 14.8572 22.8084 14.8449Z" fill="#2FB946"/>
<path id="Vector_3" d="M16.9748 18.4324C17.9614 18.4497 18.8608 17.8696 19.2505 16.9648C19.6399 16.06 19.4426 15.01 18.7507 14.3074C18.0592 13.6051 17.0104 13.3899 16.0968 13.7625C15.1833 14.1352 14.5864 15.0224 14.586 16.0071C14.5761 17.3342 15.6447 18.4194 16.9748 18.4324ZM16.9748 14.8449C17.4495 14.8276 17.8876 15.0999 18.0814 15.5327C18.2752 15.9656 18.1862 16.4727 17.8562 16.814C17.5265 17.1557 17.0221 17.2631 16.5812 17.0859C16.1403 16.9084 15.8515 16.4819 15.8512 16.0078C15.8402 15.3774 16.3429 14.8572 16.9748 14.8449Z" fill="#2FB946"/>
<path id="Vector_4" d="M11.1406 18.4324C12.1276 18.4497 13.0266 17.8696 13.4163 16.9648C13.806 16.06 13.6087 15.01 12.9168 14.3074C12.225 13.6051 11.1763 13.3899 10.2628 13.7625C9.34927 14.1352 8.75237 15.0224 8.75202 16.0071C8.74214 17.3342 9.81061 18.419 11.1406 18.4324ZM11.1406 14.8449C11.6154 14.8276 12.0535 15.0995 12.2472 15.5327C12.441 15.9656 12.3521 16.4727 12.0224 16.814C11.6927 17.1557 11.1879 17.2631 10.7471 17.0859C10.3066 16.9084 10.0175 16.4819 10.0171 16.0078C10.0065 15.3774 10.5088 14.8572 11.1406 14.8449Z" fill="#2FB946"/>
<path id="Vector_5" d="M50.5396 31.7037V13.9558C50.5361 10.5365 47.804 7.76532 44.4328 7.76172H8.05208C4.68098 7.76532 1.94887 10.5365 1.94531 13.9558V44.4539C1.94887 47.8732 4.68098 50.6444 8.05208 50.648H38.6037C41.5256 55.9983 47.774 58.5003 53.5108 56.6161C59.2475 54.7324 62.8653 48.9908 62.1411 42.9187C61.4168 36.8466 56.554 32.1459 50.5396 31.7037ZM8.05208 9.60678H44.4328C46.7995 9.60935 48.718 11.5548 48.7206 13.9558V22.6823H3.76435V13.9558C3.76689 11.5548 5.68541 9.60935 8.05208 9.60678ZM3.76435 44.4539V24.5273H48.7206V31.7037C44.7846 31.9961 41.2104 34.1392 39.0615 37.4963C36.9121 40.8538 36.436 45.0376 37.7744 48.8029H8.05208C5.68541 48.8004 3.76689 46.8549 3.76435 44.4539ZM49.6301 55.3924C43.6741 55.3924 38.8458 50.4951 38.8458 44.4539C38.8458 38.4126 43.6741 33.5153 49.6301 33.5153C55.5861 33.5153 60.4144 38.4126 60.4144 44.4539C60.4286 47.3594 59.2973 50.1502 57.2717 52.2047C55.2461 54.2593 52.4947 55.4073 49.6301 55.3924Z" fill="#2FB946"/>
</g>
</svg>
