<svg width="66" height="65" viewBox="0 0 66 65" fill="none" xmlns="http://www.w3.org/2000/svg">
<g id="security 1">
<path id="Vector" d="M56.6704 13.8906L33.1372 1.36439C32.7881 1.17825 32.3697 1.18087 32.0232 1.37092L9.14123 13.8972C8.76595 14.1029 8.5332 14.4961 8.5332 14.9238V31.2864C8.54693 44.7367 16.5245 56.9051 28.8615 62.2938L32.0376 63.6763C32.3344 63.8057 32.6724 63.8063 32.9699 63.6777L36.5487 62.1337C49.1145 56.862 57.2895 44.5761 57.2908 30.9618V14.9238C57.2908 14.4915 57.0522 14.0938 56.6704 13.8906ZM54.9476 30.9618C54.945 43.6376 47.3316 55.0751 35.6314 59.9805L35.6236 59.9844L32.507 61.3285L29.799 60.1484C18.3152 55.1326 10.8888 43.8067 10.8757 31.2864V15.6168L32.5939 3.72661L54.9476 15.6253V30.9618Z" fill="#2FB946"/>
<path id="Vector_2" d="M23.4403 30.449C22.9983 29.938 22.221 29.8776 21.7035 30.314C21.186 30.7497 21.1248 31.518 21.5667 32.0284L28.0726 39.5518C28.507 40.054 29.2678 40.1226 29.786 39.7059L44.9381 27.5327C45.4659 27.1092 45.5456 26.3429 45.1161 25.8217C44.6872 25.3011 43.9113 25.2217 43.3834 25.6459L29.1647 37.0684L23.4403 30.449Z" fill="#2FB946"/>
</g>
</svg>
