<svg width="62" height="65" viewBox="0 0 62 65" fill="none" xmlns="http://www.w3.org/2000/svg">
<path id="Vector" d="M1.21854 28.8076H3.86846V58.0575C3.87254 61.8901 6.86857 64.9958 10.565 65H51.0591C54.7555 64.9958 57.7508 61.8901 57.7549 58.0575V28.8076H60.4048C61.078 28.8076 61.6234 28.2422 61.6234 27.5442V19.6182C61.6193 15.7856 58.6239 12.6792 54.9275 12.675H48.3364L49.6909 11.2332C52.1695 8.66332 52.1695 4.49725 49.6909 1.9274C47.2124 -0.642465 43.1943 -0.642465 40.7157 1.9274L30.9613 12.0404L23.714 4.52616C21.4306 2.15865 17.7967 1.94573 15.2712 4.03264C12.7457 6.11884 12.1344 9.83932 13.8507 12.675H6.69586C2.99943 12.6799 0.00407996 15.7856 0 19.6182V27.5442C0 28.2422 0.546032 28.8076 1.21854 28.8076ZM55.3178 58.0575C55.3151 60.4955 53.4098 62.471 51.0591 62.4732H10.565C8.21359 62.471 6.30826 60.4955 6.30554 58.0575V28.8076H30.8117H55.3178V58.0575ZM30.8171 15.2018C30.8287 15.2018 30.8409 15.2039 30.8518 15.2039C30.8627 15.2039 30.8756 15.2025 30.8865 15.2018H36.7303V26.2808H25.2412V15.2018H30.8171ZM59.1863 19.6182V26.2808H39.1674V15.2018H54.9275C57.2782 15.2054 59.1836 17.1802 59.1863 19.6182ZM42.4388 3.71396C43.9688 2.13397 46.444 2.13891 47.9678 3.72524C49.4917 5.31157 49.4869 7.87861 47.9569 9.4586L44.9344 12.675H33.7962L42.4388 3.71396ZM16.4612 12.0454C14.9346 10.4626 14.9346 7.89553 16.4612 6.31272C17.9884 4.72992 20.4636 4.72992 21.9902 6.31272L28.1264 12.675H17.0691L16.4612 12.0454ZM2.43708 19.6182C2.44048 17.1802 4.34513 15.2054 6.69654 15.2018H22.8041V26.2808H2.43708V19.6182Z" fill="#2FB946"/>
</svg>
