<svg width="65" height="65" viewBox="0 0 65 65" fill="none" xmlns="http://www.w3.org/2000/svg">
<g id="chat 1">
<path id="Vector" d="M57.6208 2.19727H7.37923C3.30569 2.20156 0.00429311 5.50295 0 9.57649V43.4724C0.00429311 47.5459 3.30569 50.8467 7.37923 50.8516H23.9181L30.6141 61.9345C30.6184 61.9413 30.6233 61.9486 30.6276 61.956C30.9876 62.5208 31.6107 62.8631 32.2804 62.8631C32.9508 62.8631 33.5739 62.5208 33.9339 61.956L33.9474 61.9345L40.6434 50.8516H57.6208C61.6943 50.8467 64.9957 47.5459 65 43.4724V9.57649C64.9957 5.50295 61.6943 2.20156 57.6208 2.19727ZM62.8019 43.4724C62.7989 46.3322 60.4806 48.6498 57.6208 48.6535H40.0234C39.6388 48.6535 39.2819 48.8547 39.0832 49.184L32.2811 60.4411L25.4783 49.184C25.2796 48.8547 24.9227 48.6535 24.5381 48.6535H7.37923C4.51941 48.6498 2.20113 46.3322 2.19807 43.4724V9.57649C2.20113 6.71606 4.5188 4.3984 7.37923 4.39533H57.6208C60.4812 4.3984 62.7989 6.71606 62.8019 9.57649V43.4724Z" fill="#2FB946"/>
<path id="Vector_2" d="M43.5155 18.908L29.2649 32.519L21.5011 24.7546C21.0718 24.3253 20.3763 24.3253 19.947 24.7546C19.5177 25.1839 19.5177 25.88 19.947 26.3093L28.4706 34.833C28.8932 35.2555 29.5752 35.2629 30.0069 34.8507L45.034 20.4977C45.4725 20.0782 45.4885 19.3827 45.0696 18.9436C44.6501 18.5045 43.9546 18.4885 43.5155 18.908Z" fill="#2FB946"/>
</g>
</svg>
