<svg width="65" height="65" viewBox="0 0 65 65" fill="none" xmlns="http://www.w3.org/2000/svg">
<g id="truck 1" clip-path="url(#clip0_1027_1524)">
<path id="Vector" d="M64.173 38.0282C64.1718 38.011 64.17 37.9945 64.1681 37.9773C64.1657 37.9608 64.1627 37.9405 64.1597 37.9221C64.156 37.9037 64.153 37.8872 64.1494 37.87C64.1457 37.8528 64.1409 37.835 64.136 37.8179C64.1312 37.8007 64.1264 37.7835 64.1209 37.7663C64.1148 37.7492 64.1088 37.7326 64.1027 37.716C64.0961 37.6995 64.0894 37.6829 64.0821 37.667C64.0749 37.6504 64.067 37.6345 64.0591 37.6185C64.0519 37.6026 64.0434 37.5866 64.0343 37.5713C64.0252 37.5554 64.0168 37.5406 64.0071 37.5259C63.998 37.5106 63.9871 37.4946 63.9762 37.4787C63.9653 37.4634 63.9562 37.4517 63.9459 37.4382C63.9356 37.4247 63.9217 37.4063 63.9084 37.3922C63.9029 37.3855 63.8975 37.3781 63.8914 37.3714L55.0366 27.5997C54.1786 26.6552 52.9705 26.1173 51.7038 26.1161H37.1448V21.4158C37.1418 18.8871 35.1187 16.8375 32.6221 16.835H31.6569V11.7477C31.6569 11.3417 31.4358 10.9688 31.0822 10.7781L18.9145 4.21146C18.5912 4.03667 18.2036 4.03912 17.8827 4.21759L6.05174 10.7842C5.70416 10.9774 5.48798 11.3466 5.48798 11.7483V16.835H4.52275C2.02613 16.8381 0.00302768 18.8871 0 21.4158V50.4862C0.00302768 53.0148 2.02613 55.0645 4.52275 55.0669H7.81748C8.35338 58.5732 11.3332 61.1594 14.8357 61.1594C18.3387 61.1594 21.3179 58.5732 21.8538 55.0669H43.9129C44.4482 58.5732 47.4281 61.1601 50.9311 61.1601C54.4341 61.1601 57.414 58.5732 57.9493 55.0669H59.6545C62.1511 55.0645 64.1742 53.0148 64.1772 50.4862V38.1141C64.1772 38.1055 64.176 38.0963 64.176 38.0871C64.1754 38.0675 64.1742 38.0478 64.173 38.0282ZM51.7044 28.3142C52.3632 28.3154 52.9917 28.595 53.4374 29.0857L60.6233 37.0157H37.1448V28.3142H51.7044ZM7.65762 12.399L18.4107 6.43038L29.486 12.4076V20.1548C29.4842 26.6049 25.6633 32.4245 19.7914 34.92L19.7835 34.9231L18.3635 35.5443L17.1543 35.0108C11.392 32.4588 7.66489 26.6957 7.65762 20.3259V12.399ZM2.17024 50.4862V21.4158C2.17146 20.1002 3.22388 19.0343 4.52275 19.0331H5.48737V20.3259C5.49464 27.5696 9.73219 34.1233 16.2859 37.0255L17.9275 37.7504C18.203 37.8718 18.5155 37.8724 18.7916 37.7522L20.6397 36.9433C27.3146 34.1037 31.6563 27.4868 31.6569 20.1548V19.0325H32.6221C33.921 19.0337 34.9734 20.0996 34.9746 21.4151V52.8689H21.8538C21.3185 49.3626 18.3387 46.7757 14.8357 46.7757C11.3326 46.7757 8.35278 49.3626 7.81748 52.8689H4.52275C3.22388 52.8676 2.17146 51.8017 2.17024 50.4862ZM14.835 58.962C12.1119 58.962 9.90416 56.7259 9.90416 53.9679C9.90416 51.2099 12.1119 48.9738 14.835 48.9738C17.5581 48.9738 19.7659 51.2099 19.7659 53.9679C19.7629 56.7247 17.5569 58.9589 14.835 58.962ZM50.9305 58.962C48.2074 58.962 45.9996 56.7259 45.9996 53.9679C45.9996 51.2099 48.2074 48.9738 50.9305 48.9738C53.6536 48.9738 55.8614 51.2099 55.8614 53.9679C55.8584 56.7247 53.653 58.9583 50.9311 58.962H50.9305ZM62.007 50.4862C62.0058 51.8017 60.9533 52.8676 59.6545 52.8689H57.9493C57.414 49.3626 54.4341 46.7757 50.9311 46.7757C47.4281 46.7757 44.4482 49.3626 43.9129 52.8689H37.1448V39.2137H62.007V50.4862Z" fill="#2FB946"/>
<path id="Vector_2" d="M15.8537 24.8354C16.2364 25.2892 16.9067 25.3506 17.3639 24.974L24.8162 18.8336C25.2783 18.4497 25.3467 17.7597 24.9694 17.29C24.5928 16.8208 23.9116 16.7484 23.4465 17.1287L16.8165 22.5919L14.3047 19.6131C13.916 19.1513 13.2311 19.0967 12.7751 19.4911C12.3192 19.8854 12.2653 20.5791 12.6546 21.0403L15.8537 24.8354Z" fill="#2FB946"/>
</g>
<defs>
<clipPath id="clip0_1027_1524">
<rect width="64.1772" height="65" fill="white"/>
</clipPath>
</defs>
</svg>
