<svg width="32" height="32" viewBox="0 0 32 32" fill="none" xmlns="http://www.w3.org/2000/svg">
<g id="delivery 1" clip-path="url(#clip0_551_864)">
<g id="Group">
<g id="Group_2">
<path id="Vector" d="M30.5923 11.2667C29.7281 10.3305 28.4974 9.81335 27.1291 9.81335H23.8362V8.03267C23.8362 7.60059 23.4826 7.24707 23.0506 7.24707H7.3648C6.93273 7.24707 6.57921 7.60059 6.57921 8.03267V10.7692H3.52193C3.08985 10.7692 2.73633 11.1227 2.73633 11.5548C2.73633 11.9868 3.08985 12.3404 3.52193 12.3404H7.34516C7.35171 12.3404 7.35826 12.3404 7.3648 12.3404C7.3648 12.3404 7.36481 12.3404 7.37135 12.3404C7.80343 12.3404 8.15695 11.9868 8.15695 11.5548V8.81826H22.2715V10.599V21.1325H14.8738C14.8411 21.1325 14.8083 21.1325 14.7756 21.139C14.3828 20.1701 13.4335 19.4827 12.3272 19.4827C11.2142 19.4827 10.265 20.1767 9.87872 21.1521C9.8198 21.1391 9.76742 21.1325 9.7085 21.1325H8.15695V18.3895C8.15695 17.9574 7.80343 17.6039 7.37135 17.6039C7.35826 17.6039 7.34517 17.6039 7.33207 17.6039C7.31898 17.6039 7.31243 17.6039 7.29934 17.6039H3.52193C3.08985 17.6039 2.73633 17.9574 2.73633 18.3895C2.73633 18.8215 3.08985 19.1751 3.52193 19.1751H6.57921V21.9116C6.57921 22.3436 6.93273 22.6972 7.3648 22.6972H9.70196C9.7216 22.6972 9.73469 22.6972 9.75433 22.6972C10.0162 23.8755 11.0702 24.7528 12.3272 24.7528C13.5841 24.7528 14.6316 23.8755 14.9 22.6972H23.0571H24.3141C24.5825 23.869 25.6299 24.7528 26.8869 24.7528C28.1439 24.7528 29.1913 23.8755 29.4597 22.6972H31.2142C31.6463 22.6972 31.9998 22.3436 31.9998 21.9116V15.3845C31.9998 13.689 31.5088 12.2618 30.5923 11.2667ZM12.3272 23.1881C11.738 23.1881 11.2601 22.7102 11.2601 22.121C11.2601 21.5318 11.738 21.0539 12.3272 21.0539C12.9164 21.0539 13.3943 21.5318 13.3943 22.121C13.3943 22.7102 12.9164 23.1881 12.3272 23.1881ZM26.8869 23.1881C26.2977 23.1881 25.8198 22.7102 25.8198 22.121C25.8198 21.5318 26.2977 21.0539 26.8869 21.0539C27.4761 21.0539 27.954 21.5318 27.954 22.121C27.9475 22.7102 27.4695 23.1881 26.8869 23.1881ZM30.4286 21.1325H29.3288C28.936 20.1701 27.9867 19.4827 26.8869 19.4827C25.7871 19.4827 24.8378 20.1636 24.445 21.1325H23.8427V11.3845H27.1357C29.1979 11.3845 30.4286 12.8837 30.4286 15.3911V21.1325Z" fill="#2FB946"/>
<path id="Vector_2" d="M13.4926 16.4452C13.1849 16.7529 13.1849 17.2505 13.4926 17.5581C13.6432 17.7087 13.8462 17.7873 14.0491 17.7873C14.252 17.7873 14.4484 17.7087 14.6056 17.5581L16.6285 15.5352L16.635 15.5287C16.6481 15.509 16.6678 15.4959 16.6809 15.4763C16.6874 15.4632 16.6939 15.4567 16.7005 15.4436C16.707 15.4305 16.7136 15.4239 16.7267 15.4108C16.7332 15.3978 16.7398 15.3847 16.7463 15.3716C16.7529 15.3585 16.7594 15.3519 16.766 15.3388C16.7725 15.3257 16.7791 15.3126 16.7856 15.2996C16.7921 15.2865 16.7987 15.2799 16.7987 15.2668C16.8052 15.2537 16.8052 15.2406 16.8118 15.2275C16.8183 15.2144 16.8183 15.2014 16.8249 15.1948C16.8314 15.1817 16.8314 15.1686 16.8314 15.1555C16.8314 15.1424 16.838 15.1293 16.838 15.1162C16.838 15.1032 16.8445 15.0901 16.8445 15.0704C16.8445 15.0573 16.8511 15.0508 16.8511 15.0377C16.8576 14.9853 16.8576 14.9329 16.8511 14.8806C16.8511 14.8675 16.8511 14.8609 16.8445 14.8478C16.8445 14.8347 16.838 14.8216 16.838 14.802C16.838 14.7889 16.8314 14.7758 16.8314 14.7627C16.8314 14.7496 16.8249 14.7365 16.8249 14.7234C16.8183 14.7104 16.8183 14.6973 16.8118 14.6907C16.8052 14.6776 16.8052 14.6645 16.7987 14.6514C16.7921 14.6383 16.7856 14.6318 16.7856 14.6187C16.7791 14.6056 16.7725 14.5925 16.766 14.5794C16.7594 14.5663 16.7529 14.5598 16.7463 14.5467C16.7398 14.5336 16.7332 14.5205 16.7267 14.5074C16.7201 14.4943 16.7136 14.4878 16.7005 14.4747C16.6939 14.4616 16.6874 14.455 16.6809 14.4419C16.6678 14.4223 16.6481 14.4092 16.635 14.3896L16.6285 14.383L14.7038 12.4583C14.3961 12.1506 13.8985 12.1506 13.5908 12.4583C13.2831 12.766 13.2831 13.2635 13.5908 13.5712L14.1735 14.1539H0.785597C0.353519 14.1539 0 14.5074 0 14.9395C0 15.3716 0.353519 15.7251 0.785597 15.7251H14.1669L13.4926 16.4452Z" fill="#2FB946"/>
</g>
</g>
</g>
<defs>
<clipPath id="clip0_551_864">
<rect width="32" height="32" fill="white"/>
</clipPath>
</defs>
</svg>
