<svg width="32" height="32" viewBox="0 0 32 32" fill="none" xmlns="http://www.w3.org/2000/svg">
<g id="package 1" clip-path="url(#clip0_551_832)">
<g id="Group">
<g id="Group_2">
<path id="Vector" d="M31.1748 8.28082L24.894 0.315068C24.7365 0.116438 24.5036 0 24.2502 0H7.75704C7.50361 0 7.27074 0.116438 7.1132 0.315068L0.832379 8.28082C0.715941 8.42466 0.654297 8.60274 0.654297 8.78767V31.1781C0.654297 31.6301 1.02416 32 1.47621 32H30.5242C30.9762 32 31.3461 31.6301 31.3461 31.1781V8.78767C31.3461 8.60274 31.2844 8.42466 31.1748 8.28082ZM28.942 8.10274H16.8255V1.64384H23.8529L28.942 8.10274ZM8.1543 1.64384H15.1817V8.10274H3.06526L8.1543 1.64384ZM2.29813 30.3562V9.74658H29.7022V30.3562H2.29813Z" fill="#2FB946"/>
<path id="Vector_2" d="M24.8137 15.5615H8.00551C7.55346 15.5615 7.18359 15.9314 7.18359 16.3834C7.18359 16.8355 7.55346 17.2054 8.00551 17.2054H24.8137C25.2658 17.2054 25.6356 16.8355 25.6356 16.3834C25.6356 15.9314 25.2658 15.5615 24.8137 15.5615Z" fill="#2FB946"/>
<path id="Vector_3" d="M21.6196 19.418H11.195C10.7429 19.418 10.373 19.7878 10.373 20.2399C10.373 20.6919 10.7429 21.0618 11.195 21.0618H21.6128C22.0648 21.0618 22.4347 20.6919 22.4347 20.2399C22.4347 19.7878 22.0717 19.418 21.6196 19.418Z" fill="#2FB946"/>
<path id="Vector_4" d="M21.6196 23.2676H11.195C10.7429 23.2676 10.373 23.6374 10.373 24.0895C10.373 24.5416 10.7429 24.9114 11.195 24.9114H21.6128C22.0648 24.9114 22.4347 24.5416 22.4347 24.0895C22.4347 23.6374 22.0717 23.2676 21.6196 23.2676Z" fill="#2FB946"/>
</g>
</g>
</g>
<defs>
<clipPath id="clip0_551_832">
<rect width="32" height="32" fill="white"/>
</clipPath>
</defs>
</svg>
