<svg width="32" height="32" viewBox="0 0 32 32" fill="none" xmlns="http://www.w3.org/2000/svg">
<g id="coins 1" clip-path="url(#clip0_551_851)">
<g id="Group">
<g id="Group_2">
<path id="Vector" d="M24.7687 9.56308C28.8934 9.56308 32.0003 7.95976 32.0003 5.83086C32.0003 3.70196 28.8934 2.09863 24.7687 2.09863C20.644 2.09863 17.5371 3.70196 17.5371 5.83086C17.5371 7.95976 20.644 9.56308 24.7687 9.56308ZM24.7687 3.70196C28.2082 3.70196 30.4036 4.96599 30.4036 5.83751C30.4036 6.70903 28.2082 7.97306 24.7687 7.97306C21.3292 7.97306 19.1338 6.70903 19.1338 5.83751C19.1338 4.96599 21.3292 3.70196 24.7687 3.70196Z" fill="#2FB946"/>
<path id="Vector_2" d="M31.3948 9.63655C30.9824 9.48353 30.5233 9.69642 30.3703 10.1089C30.031 11.0336 27.7957 12.0316 24.7753 12.0316C21.8348 12.0316 19.6327 11.0869 19.2069 10.1754C19.0206 9.77625 18.5416 9.60328 18.1425 9.78956C17.7433 9.97584 17.5703 10.4548 17.7566 10.854C18.535 12.5172 21.3558 13.6282 24.7753 13.6282C26.4052 13.6282 27.9886 13.3621 29.246 12.8698C30.6298 12.3309 31.5412 11.5659 31.8738 10.6544C32.0202 10.2486 31.8073 9.78956 31.3948 9.63655Z" fill="#2FB946"/>
<path id="Vector_3" d="M31.3948 13.7078C30.9824 13.5548 30.5233 13.7677 30.3703 14.1802C30.031 15.1049 27.7957 16.1028 24.7753 16.1028C21.8348 16.1028 19.6327 15.1581 19.2069 14.2467C19.0206 13.8475 18.5416 13.6746 18.1425 13.8608C17.7433 14.0471 17.5703 14.5261 17.7566 14.9253C18.535 16.5885 21.3558 17.6995 24.7753 17.6995C26.4052 17.6995 27.9886 17.4334 29.246 16.9411C30.6298 16.4022 31.5412 15.6371 31.8738 14.7257C32.0202 14.3199 31.8073 13.8608 31.3948 13.7078Z" fill="#2FB946"/>
<path id="Vector_4" d="M31.3948 17.7723C30.9824 17.6193 30.5233 17.8322 30.3703 18.2446C30.031 19.1694 27.7957 20.1673 24.7753 20.1673C21.8348 20.1673 19.6327 19.2226 19.2069 18.3112C19.0206 17.912 18.5416 17.739 18.1425 17.9253C17.7433 18.1116 17.5703 18.5906 17.7566 18.9898C18.535 20.653 21.3558 21.764 24.7753 21.764C26.4052 21.764 27.9886 21.4979 29.246 21.0055C30.6298 20.4667 31.5412 19.7016 31.8738 18.7902C32.0202 18.3843 31.8073 17.9253 31.3948 17.7723Z" fill="#2FB946"/>
<path id="Vector_5" d="M31.3948 21.8446C30.9824 21.6915 30.5233 21.9044 30.3703 22.3169C30.031 23.2416 27.7957 24.2396 24.7753 24.2396C21.8348 24.2396 19.6327 23.2949 19.2069 22.3834C19.0206 21.9843 18.5416 21.8113 18.1425 21.9976C17.7433 22.1838 17.5703 22.6628 17.7566 23.062C18.535 24.7252 21.3558 25.8362 24.7753 25.8362C26.4052 25.8362 27.9886 25.5701 29.246 25.0778C30.6298 24.5389 31.5412 23.7739 31.8738 22.8624C32.0202 22.45 31.8073 21.9909 31.3948 21.8446Z" fill="#2FB946"/>
<path id="Vector_6" d="M31.3948 25.909C30.9824 25.756 30.5233 25.9689 30.3703 26.3814C30.031 27.3061 27.7957 28.304 24.7753 28.304C21.8348 28.304 19.6327 27.3593 19.2069 26.4479C19.0206 26.0487 18.5416 25.8757 18.1425 26.062C17.7433 26.2483 17.5703 26.7273 17.7566 27.1265C18.535 28.7897 21.3558 29.9007 24.7753 29.9007C26.4052 29.9007 27.9886 29.6346 29.246 29.1423C30.6298 28.6034 31.5412 27.8383 31.8738 26.9269C32.0202 26.5211 31.8073 26.062 31.3948 25.909Z" fill="#2FB946"/>
<path id="Vector_7" d="M13.8519 17.7723C13.4394 17.6193 12.9804 17.8322 12.8273 18.2446C12.488 19.1694 10.2527 20.1673 7.23233 20.1673C4.29179 20.1673 2.08971 19.2226 1.66393 18.3112C1.47765 17.912 0.998649 17.739 0.59948 17.9253C0.200312 18.1116 0.0273387 18.5906 0.213617 18.9898C0.991996 20.653 3.81279 21.764 7.23233 21.764C8.86227 21.764 10.4456 21.4979 11.703 21.0055C13.0868 20.4667 13.9982 19.7016 14.3309 18.7902C14.4772 18.3843 14.2643 17.9253 13.8519 17.7723Z" fill="#2FB946"/>
<path id="Vector_8" d="M13.8519 21.8446C13.4394 21.6915 12.9804 21.9044 12.8273 22.3169C12.488 23.2416 10.2527 24.2396 7.23233 24.2396C4.29179 24.2396 2.08971 23.2949 1.66393 22.3834C1.47765 21.9843 0.998649 21.8113 0.59948 21.9976C0.200312 22.1838 0.0273387 22.6628 0.213617 23.062C0.991996 24.7252 3.81279 25.8362 7.23233 25.8362C8.86227 25.8362 10.4456 25.5701 11.703 25.0778C13.0868 24.5389 13.9982 23.7739 14.3309 22.8624C14.4772 22.45 14.2643 21.9909 13.8519 21.8446Z" fill="#2FB946"/>
<path id="Vector_9" d="M13.8519 25.909C13.4394 25.756 12.9804 25.9689 12.8273 26.3814C12.488 27.3061 10.2527 28.304 7.23233 28.304C4.29179 28.304 2.08971 27.3593 1.66393 26.4479C1.47765 26.0487 0.998649 25.8757 0.59948 26.062C0.200312 26.2483 0.0273387 26.7273 0.213617 27.1265C0.991996 28.7897 3.81279 29.9007 7.23233 29.9007C8.86227 29.9007 10.4456 29.6346 11.703 29.1423C13.0868 28.6034 13.9982 27.8383 14.3309 26.9269C14.4772 26.5211 14.2643 26.062 13.8519 25.909Z" fill="#2FB946"/>
<path id="Vector_10" d="M7.2316 10.2354C3.10686 10.2354 0 11.8387 0 13.9676C0 16.0965 3.10686 17.6998 7.2316 17.6998C11.3563 17.6998 14.4632 16.0965 14.4632 13.9676C14.4632 11.8387 11.3563 10.2354 7.2316 10.2354ZM7.2316 16.1031C3.7921 16.1031 1.59667 14.8391 1.59667 13.9676C1.59667 13.0961 3.7921 11.832 7.2316 11.832C10.6711 11.832 12.8665 13.0961 12.8665 13.9676C12.8665 14.8391 10.6711 16.1031 7.2316 16.1031Z" fill="#2FB946"/>
</g>
</g>
</g>
<defs>
<clipPath id="clip0_551_851">
<rect width="32" height="32" fill="white"/>
</clipPath>
</defs>
</svg>
