<svg width="32" height="32" viewBox="0 0 32 32" fill="none" xmlns="http://www.w3.org/2000/svg">
<g id="shield 1">
<g id="Group">
<g id="Group_2">
<path id="Vector" d="M29.9598 6.82054C29.9598 5.56956 29.2079 4.72447 27.9436 4.56477C27.7041 4.5315 27.4579 4.50489 27.2183 4.47827C26.5063 4.39177 25.8342 4.31857 25.1888 4.17883C22.6668 3.62653 20.2248 2.48867 17.5232 0.598877C17.0773 0.28613 16.5849 0 16.006 0C15.4337 0 14.9413 0.28613 14.4955 0.592223C10.8823 3.07424 7.62837 4.33853 4.26135 4.55147C2.80409 4.64462 2.03885 5.46974 2.03885 6.94032C2.03885 7.81867 2.03885 8.69703 2.03885 9.57538V9.58869C2.0322 12.0308 2.0322 14.5527 2.05882 17.0414C2.06547 17.9663 2.18525 18.9245 2.40483 19.896C2.92386 22.1718 4.10831 24.2213 6.02471 26.1576C8.41357 28.5731 11.408 30.4363 15.1742 31.8536C15.4271 31.9468 15.6999 32 15.986 32C16.3321 32 16.6781 31.9268 16.9842 31.7937C17.1904 31.7006 17.4034 31.6141 17.6097 31.5276L17.6296 31.5209C18.5412 31.1283 19.4795 30.7224 20.3978 30.2433C23.4587 28.6263 25.7744 26.7166 27.4778 24.4009C29.0083 22.3248 29.8001 20.2354 29.8933 18.0129C29.9133 17.587 29.9266 17.1345 29.9332 16.6222L29.9665 12.5099C29.9665 12.4833 29.9665 12.4633 29.9665 12.4367V10.8397C29.9665 9.49553 29.9665 8.15804 29.9598 6.82054ZM28.3628 12.43C28.3628 12.4433 28.3628 12.4566 28.3628 12.4766L28.3296 16.6022C28.3229 17.0946 28.3096 17.5271 28.2963 17.9397C28.2164 19.8361 27.5244 21.6394 26.1869 23.4494C24.6298 25.5654 22.4872 27.3221 19.6458 28.826C18.7875 29.2784 17.8758 29.671 16.9908 30.0503L16.9709 30.057C16.7579 30.1501 16.5516 30.2366 16.3387 30.3298C16.2322 30.3764 16.1058 30.403 15.9794 30.403C15.8862 30.403 15.7997 30.3897 15.7265 30.3631C12.1798 29.0256 9.37177 27.2822 7.14927 25.0397C5.45911 23.3163 4.4144 21.5197 3.96191 19.5434C3.76229 18.685 3.66248 17.8399 3.65582 17.0281C3.6292 14.5527 3.63586 12.0308 3.63586 9.59534V9.58203C3.63586 8.70368 3.63586 7.82533 3.63586 6.94697C3.63586 6.64088 3.68244 6.41464 3.7756 6.32148C3.8621 6.22832 4.06838 6.16843 4.36782 6.14847C8.03428 5.90892 11.541 4.56477 15.4005 1.9031C15.6999 1.69682 15.8995 1.59701 16.006 1.59701C16.1125 1.59701 16.3121 1.70347 16.6115 1.90975C19.4928 3.91932 22.1145 5.13703 24.8494 5.73591C25.5681 5.89561 26.2801 5.97546 27.0386 6.06197C27.2782 6.08858 27.5111 6.1152 27.7506 6.14847C28.2164 6.20836 28.3695 6.37471 28.3695 6.82054C28.3695 8.15804 28.3695 9.49553 28.3695 10.833L28.3628 12.43Z" fill="#2FB946"/>
</g>
</g>
<path id="Line 1" d="M10.666 17.4549L13.6311 19.499C14.0465 19.7853 14.6102 19.7174 14.9456 19.3405L22.666 10.667" stroke="#2FB946" stroke-width="1.2" stroke-linecap="round"/>
</g>
</svg>
