<svg width="24" height="24" viewBox="0 0 24 24" fill="none" xmlns="http://www.w3.org/2000/svg">
<g id="Sign_out_squre_light">
<path id="Vector 9" d="M2 12L1.3753 11.5002L0.9755 12L1.3753 12.4998L2 12ZM11 12.8C11.4418 12.8 11.8 12.4418 11.8 12C11.8 11.5582 11.4418 11.2 11 11.2V12.8ZM5.3753 6.50024L1.3753 11.5002L2.6247 12.4998L6.62469 7.49976L5.3753 6.50024ZM1.3753 12.4998L5.3753 17.4998L6.62469 16.5002L2.6247 11.5002L1.3753 12.4998ZM2 12.8H11V11.2H2V12.8Z" fill="#333333"/>
<path id="Rectangle 21" d="M10 8.13193V7.38851C10 5.77017 10 4.961 10.474 4.4015C10.9479 3.84201 11.7461 3.70899 13.3424 3.44293L15.0136 3.1644C18.2567 2.62388 19.8782 2.35363 20.9391 3.25232C22 4.15102 22 5.79493 22 9.08276V14.9172C22 18.2051 22 19.849 20.9391 20.7477C19.8782 21.6464 18.2567 21.3761 15.0136 20.8356L13.3424 20.5571C11.7461 20.291 10.9479 20.158 10.474 19.5985C10 19.039 10 18.2298 10 16.6115V16.066" stroke="#333333" stroke-width="1.6"/>
</g>
</svg>
