<svg width="27" height="27" viewBox="0 0 27 27" fill="none" xmlns="http://www.w3.org/2000/svg">
<g id="Shop">
<path id="Vector 3" d="M16.3125 23.625V17.875C16.3125 17.3227 15.8648 16.875 15.3125 16.875H11.6875C11.1352 16.875 10.6875 17.3227 10.6875 17.875V23.625" stroke="#333333" stroke-width="1.5" stroke-linecap="round" stroke-linejoin="round"/>
<path id="Rectangle 42" d="M5.625 12.375V19.625C5.625 21.5106 5.625 22.4534 6.21079 23.0392C6.79657 23.625 7.73938 23.625 9.625 23.625H17.375C19.2606 23.625 20.2034 23.625 20.7892 23.0392C21.375 22.4534 21.375 21.5106 21.375 19.625V12.375" stroke="#333333" stroke-width="1.5"/>
<path id="Rectangle 43" d="M5.24627 4.88993C5.42816 4.16237 5.5191 3.79859 5.79036 3.58679C6.06163 3.375 6.4366 3.375 7.18655 3.375H19.8134C20.5634 3.375 20.9384 3.375 21.2096 3.58679C21.4809 3.79859 21.5718 4.16237 21.7537 4.88993L23.1551 10.4956C23.2996 11.0734 23.3718 11.3624 23.32 11.5936C23.2545 11.8863 23.061 12.1341 22.793 12.2687C22.5812 12.375 22.2782 12.375 21.6721 12.375V12.375C20.871 12.375 20.4704 12.375 20.1422 12.2569C19.6889 12.0938 19.3096 11.7726 19.0742 11.3522C18.9038 11.0479 18.8391 10.6595 18.7096 9.88264V9.88264C18.6734 9.66511 18.6552 9.55635 18.6281 9.53277C18.5905 9.50011 18.5345 9.50011 18.4969 9.53277C18.4698 9.55635 18.4516 9.66511 18.4154 9.88264L18.3237 10.433C18.2811 10.6885 18.2598 10.8162 18.2284 10.9258C18.0056 11.7033 17.3365 12.2702 16.533 12.362C16.4197 12.375 16.2902 12.375 16.0312 12.375V12.375C15.7723 12.375 15.6428 12.375 15.5295 12.362C14.726 12.2702 14.0569 11.7033 13.8341 10.9258C13.8027 10.8162 13.7814 10.6885 13.7388 10.433L13.6471 9.88264C13.6109 9.66511 13.5927 9.55635 13.5656 9.53277C13.528 9.50011 13.472 9.50011 13.4344 9.53277C13.4073 9.55635 13.3891 9.66511 13.3529 9.88264L13.2612 10.433C13.2186 10.6885 13.1973 10.8162 13.1659 10.9258C12.9431 11.7033 12.274 12.2702 11.4705 12.362C11.3572 12.375 11.2277 12.375 10.9688 12.375V12.375C10.7098 12.375 10.5803 12.375 10.467 12.362C9.66346 12.2702 8.99435 11.7033 8.7716 10.9258C8.74021 10.8162 8.71892 10.6885 8.67634 10.433L8.58461 9.88264C8.54835 9.66511 8.53023 9.55635 8.50306 9.53277C8.46545 9.50011 8.40955 9.50011 8.37194 9.53277C8.34477 9.55635 8.32665 9.66511 8.29039 9.88264V9.88264C8.16092 10.6595 8.09619 11.0479 7.92576 11.3522C7.69036 11.7726 7.31112 12.0938 6.85778 12.2569C6.52956 12.375 6.129 12.375 5.3279 12.375V12.375C4.72183 12.375 4.4188 12.375 4.20702 12.2687C3.939 12.1341 3.74553 11.8863 3.67997 11.5936C3.62816 11.3624 3.70039 11.0734 3.84486 10.4956L5.24627 4.88993Z" stroke="#333333" stroke-width="1.5"/>
</g>
</svg>
