<svg width="24" height="24" viewBox="0 0 24 24" fill="none" xmlns="http://www.w3.org/2000/svg">
<g id="User_add">
<circle id="Ellipse 46" cx="12" cy="8" r="4" stroke="#626364" stroke-width="2" stroke-linecap="round"/>
<path id="Subtract" fill-rule="evenodd" clip-rule="evenodd" d="M13.3258 15.0759C12.8878 15.0255 12.4444 15 11.9992 15C10.0797 15 8.19298 15.4738 6.63028 16.3732C5.06816 17.2721 3.88038 18.5702 3.33005 20.1106C3.14424 20.6307 3.41523 21.203 3.93532 21.3888C4.45541 21.5746 5.02765 21.3036 5.21346 20.7835C5.57473 19.7723 6.39568 18.8157 7.62787 18.1066C8.64187 17.523 9.8629 17.1503 11.1571 17.0368C11.488 16.0601 12.3082 15.3092 13.3258 15.0759Z" fill="#626364"/>
<path id="Vector 52" d="M18 14L18 22" stroke="#626364" stroke-width="2.5" stroke-linecap="round"/>
<path id="Vector 53" d="M22 18L14 18" stroke="#626364" stroke-width="2.5" stroke-linecap="round"/>
</g>
</svg>
